# xmcd
#
# Track frame offsets: 
#        150
#        10942
#        26310
#        43335
#        62535
#        76635
#        92235
#        112635
#        126572
#        137272
#        151875
#        166035
#        181352
#        192402
#        204665
#        220560
#        234960
#        248435
#        264710
#        279022
#        291815
#        306740
#        323302
#
# Disc length: 4496 seconds
#
# Revision: 19
# Processed by: cddbd v1.5.2PL0 Copyright (c) Steve Scherf et al.
# Submitted via: ExactAudioCopy v1.3
#
DISCID=27118e17
DTITLE=Kris Kristofferson - The Very Best of Kris Kristofferson
DYEAR=1999
DGENRE=Country
TTITLE0=Help Me Make it Through the Night
TTITLE1=For the Good Times
TTITLE2=Loving Her Was Easier (Than Anything I'll Ever Do Again)
TTITLE3=Me and Bobby McGee
TTITLE4=Nobody Wins
TTITLE5=Why Me
TTITLE6=Sunday Morning Coming Down
TTITLE7=Jody and the Kid
TTITLE8=Kris Kristofferson with Rita Coolidge - Please Don't Tell Me H
TTITLE8=ow the Story Ends
TTITLE9=The Taker
TTITLE10=Stranger
TTITLE11=Help Me
TTITLE12=Kris Kristofferson with Dolly Parton - Put it Off Until Tomor
TTITLE12=row
TTITLE13=Breakdown (A Long Way From Home)
TTITLE14=Kris Kristofferson with Joan Baez - Hello in There (Live)
TTITLE15=The Pilgrim: Chapter 33
TTITLE16=From the Bottle to the Bottom
TTITLE17=Somebody Nobody Knows
TTITLE18=Kris Kristofferson with Rita Coolidge - I'd Rather Be Sorry
TTITLE19=Once More With Feeling
TTITLE20=Kris Kristofferson with Rita Coolidge - We Must Have Been Out
TTITLE20=of Our Minds
TTITLE21=Come Sundown
TTITLE22=Kiss the World Goodbye
EXTD=YEAR: 1999
EXTT0=
EXTT1=
EXTT2=
EXTT3=
EXTT4=
EXTT5=
EXTT6=
EXTT7=
EXTT8=
EXTT9=
EXTT10=
EXTT11=
EXTT12=
EXTT13=
EXTT14=
EXTT15=
EXTT16=
EXTT17=
EXTT18=
EXTT19=
EXTT20=
EXTT21=
EXTT22=
PLAYORDER=
